<svg xmlns="http://www.w3.org/2000/svg" viewBox="0 0 24 24" width="180" height="180">
  <defs>
    <linearGradient id="gradApple" x1="0%" y1="0%" x2="100%" y2="100%">
      <stop offset="0%" style="stop-color:#3B7EA1;stop-opacity:1" />
      <stop offset="100%" style="stop-color:#2563EB;stop-opacity:1" />
    </linearGradient>
  </defs>
  <rect width="24" height="24" rx="4" fill="white"/>
  <path fill="url(#gradApple)" d="M12,2A10,10 0 0,1 22,12A10,10 0 0,1 12,22A10,10 0 0,1 2,12A10,10 0 0,1 12,2M12,4A8,8 0 0,0 4,12A8,8 0 0,0 12,20A8,8 0 0,0 20,12A8,8 0 0,0 12,4M12,6A6,6 0 0,1 18,12H12V6Z"/>
</svg>